<?xml version="1.0" standalone="no"?>
<!DOCTYPE svg PUBLIC "-//W3C//DTD SVG 20010904//EN"
 "http://www.w3.org/TR/2001/REC-SVG-20010904/DTD/svg10.dtd">
<svg version="1.0" xmlns="http://www.w3.org/2000/svg"
 width="259.000000pt" height="213.000000pt" viewBox="0 0 259.000000 213.000000"
 preserveAspectRatio="xMidYMid meet">
<metadata>
Created by potrace 1.16, written by Peter Selinger 2001-2019
</metadata>
<g transform="translate(0.000000,213.000000) scale(0.100000,-0.100000)"
fill="#000000" stroke="none">
<path d="M1195 1955 c-148 -33 -329 -129 -415 -221 l-35 -37 54 42 c127 98
334 171 491 171 147 0 310 -46 435 -125 l77 -47 -72 -35 c-72 -35 -130 -94
-130 -133 0 -32 -29 -87 -59 -112 -24 -21 -44 -26 -117 -32 -57 -4 -104 -14
-131 -27 -45 -22 -90 -73 -74 -83 5 -4 12 -19 16 -34 l6 -29 37 38 c60 60 146
63 217 7 40 -31 75 -113 75 -174 0 -107 -61 -245 -148 -331 -57 -57 -107 -87
-192 -114 l-55 -17 38 -7 c49 -10 125 1 193 26 106 40 207 148 260 277 12 29
25 53 30 54 5 0 17 -26 28 -58 24 -77 26 -247 3 -318 l-16 -48 24 22 c31 29
79 121 99 189 35 119 11 292 -63 458 -71 158 -89 270 -57 347 17 40 83 106
106 106 22 0 112 -96 164 -174 53 -81 101 -187 127 -286 30 -113 32 -299 6
-413 l-19 -79 22 -23 c18 -19 21 -30 15 -57 -9 -41 -76 -188 -105 -228 -37
-53 -14 -32 30 26 62 83 125 207 156 309 26 83 28 103 28 265 1 203 -13 271
-89 425 -116 235 -326 408 -570 470 -112 29 -286 33 -390 10z"/>
<path d="M1409 1647 c-63 -43 -63 -131 0 -174 40 -27 61 -28 106 -8 78 38 78
152 0 190 -45 20 -66 19 -106 -8z"/>
</g>
</svg>
